<svg width="18" height="18" fill="none" xmlns="http://www.w3.org/2000/svg"><ellipse cx="9.003" cy="9.02" rx="8.93" ry="8.881" fill="#fff" fill-rule="evenodd"/><g clip-path="url(#clip0)" transform="translate(-.024 -.604)" fill="#bc002d"><path d="M15.388 3.24A8.941 8.941 0 009.024.605 8.941 8.941 0 002.66 3.241 8.941 8.941 0 00.024 9.604a8.94 8.94 0 002.636 6.364 8.941 8.941 0 006.364 2.636 8.941 8.941 0 006.364-2.636 8.94 8.94 0 002.636-6.364 8.94 8.94 0 00-2.636-6.363zM9.024 16.839c-3.989 0-7.234-3.245-7.234-7.234v-.032c.018-3.94 3.203-7.147 7.136-7.2h.098a7.24 7.24 0 017.233 7.233c0 3.988-3.245 7.233-7.233 7.233z"/><path d="M14.518 10.039a.533.533 0 010-1.065h.642a6.179 6.179 0 00-5.677-5.52v.558a.533.533 0 11-1.065 0v-.546A6.179 6.179 0 002.88 9.047h.575a.533.533 0 110 1.066h-.58A6.178 6.178 0 008.49 15.75v-.675a.533.533 0 011.065 0v.675a6.178 6.178 0 005.62-5.711zM11.18 8.202L9.4 9.98a.532.532 0 01-.753 0L5.55 6.884a.532.532 0 11.754-.753l2.72 2.72 1.403-1.402a.532.532 0 11.753.753z"/></g><defs id="defs11"><clipPath id="clip0"><path fill="#fff" transform="translate(.024 .604)" id="rect8" d="M0 0h18v18H0z"/></clipPath></defs></svg>