<svg width="26" height="26" fill="none" xmlns="http://www.w3.org/2000/svg"><g clip-path="url(#clip0)" fill="#BC002D"><path d="M22.135 4.547A12.418 12.418 0 0013.296.886c-3.339 0-6.478 1.3-8.839 3.661a12.418 12.418 0 00-3.66 8.839c0 3.339 1.3 6.478 3.66 8.839a12.423 12.423 0 008.84 3.661c3.338 0 6.477-1.3 8.838-3.661a12.422 12.422 0 003.661-8.839c0-3.339-1.3-6.478-3.661-8.839zm-8.839 18.886c-5.54 0-10.046-4.507-10.046-10.047v-.045c.025-5.474 4.448-9.926 9.91-10l.034-.001h.102c5.54 0 10.047 4.506 10.047 10.046 0 5.54-4.507 10.047-10.047 10.047z"/><path d="M20.927 13.99a.74.74 0 010-1.48h.892c-.419-4.105-3.748-7.362-7.885-7.667v.776a.74.74 0 01-1.48 0V4.86a8.582 8.582 0 00-7.69 7.753h.799a.74.74 0 110 1.479h-.805a8.58 8.58 0 007.798 7.829v-.938a.74.74 0 011.48 0v.938c4.18-.36 7.512-3.733 7.806-7.931h-.915zm-4.637-2.552l-2.47 2.471a.74.74 0 01-1.047 0L8.472 9.608a.74.74 0 111.046-1.046l3.778 3.778 1.948-1.948a.74.74 0 111.046 1.046z"/></g><defs><clipPath id="clip0"><path fill="#fff" transform="translate(.796 .886)" d="M0 0h25v25H0z"/></clipPath></defs></svg>