<svg width="38.89" height="38.89" fill="none" xmlns="http://www.w3.org/2000/svg"><path d="M19.445 38.89c10.74 0 19.445-8.706 19.445-19.445C38.89 8.705 30.184 0 19.445 0 8.705 0 0 8.706 0 19.445 0 30.185 8.706 38.89 19.445 38.89z" fill="#bc002d"/><path fill-rule="evenodd" clip-rule="evenodd" d="M0 4.267l.417-.58C1.797 4.782 2.737 5.82 4.44 5.82c.36 0 .494.27.832.334 1.105.208 2.348.426 3.584.426.77 0 1.622-.678 2.034.7.087.291 1.29 1.299 1.578 1.336.728.095 2.096.977 2.185 1.277l1.024 1.025.986.411.412-.06c.18-.026.42.5.595.557.45.15.79.423 1.195.6.277.12.66.138.841.263.566.387.284.575.895.863.604.286 1.37.685 2.102.948.44.158.818.14 1.279.373.195.1.309.407.543.559.342.222.806.301 1.024.478.598.486 2.728 1.403 3.849 1.403.49 0 .092.002.446.223.188.118 1.714.563 1.714.502 1.3-.25.968.194 2.143.507l.893.237c1.13.301-1.44-.314-2.064-.501-.151-.045-.936-.104-1.289-.08-.516.034-.626.16-.76.05-.645-.53-1.516-.496-2.306-.943-.915-.517-2.291-.896-3.156-1.185-.176-.04-.231-.287-.404-.435-.288-.249-.689-.445-.946-.566-.996-.467-1.815-.563-2.612-.944-.272-.13-.517-.053-.424.41.083.41.51 1.197.267 1.306-.195.089-.45.03-.469-.206-.121-1.455-.572-1.95-1.286-2.513-.356-.28-1-.649-1.426-.76a6.932 6.932 0 01-1.46-.582c-.475-.272-.726-.542-1.12-.542-1.49 0-.56-.228-1.457-1.125-.571-.57-2.283-.873-2.55-1.762-.116-.392-3.081-1.429-3.065-1.429-.432.084-1.192-.272-1.756-.363-.266-.043-.382.15-.595.15-.163 0-.626-.245-.96-.305-.377-.068-.618.054-.618.169 0 1.432 1.757 1.884 2.473 2.917.356.513.881.71 1.351 1.216.253.272 1.33 1.335 1.608 1.428.837.499 2.36.906 2.898 1.444 2.278 2.284 7.567 3.817 10.107 5.41.565.354 1.536.87 2.124 1.458.418.419-.543 1.705-.698.517-.045-.346-1.782-.222-1.062-.942.626-.626-3.17-1.491-3.217-1.61-.272-.69-1.554-.773-2.155-1.277-.561-.47.069.568-.82-.486-1.103-1.31-4.114-1.093-4.43-2.31-.006-.023-2.171-1.323-.88.213 1.835 2.184 3.463 3.015 5.22 4.771.819.82 3.007 2.632 4.088 3.754.273.283.589.239.661.455.185.205.254.612.448.823 1.392 1.515 3.138 2.969 4.576 3.995.545 0 .545.94.545 1.671-.306.191-.96-1.307-1.092-1.52-.073-.116-1.67-1.246-1.821-1.246-1.618-1.283-2.777-2.973-4.067-4.296-.239-.245-.673.006-.908-.249-.26-.282-.245-.723-.476-1.05-.34-.483-.93-.862-1.39-1.279-.29-.264-.701-.364-1.02-.632-.332-.28-1.486-1.338-1.7-1.338-.413 0 .313 1.284-.515.456-.406-.405-1.005-2.188-1.64-2.188-.048 0-.193.173-.199.33-.005.156.128.296.09.532-.005.035-.22.166-.25.342-.049.292.078.68.07.744-.258 1.803-.378 4.465-.378 4.981 0 .653-.234 1.65.09 1.854.054.034.48-.042.43.138-.01.033.718.448.952.91.2.394.24.517.242.845 0 .104.567.037.548.555-.013.37-.572.223-.588.248-.043.064-.412-.755-.8-1.235-.388-.478-.796-.617-.83-.57a3.556 3.556 0 01-.581.63c-.33.276-.676-.428-.576-.631.086-.176.626-.839.557-.88-.427-.262-.423-.461-.172-1.636.142-.667.579-1.998.45-3.37-.013-.141-.193-.346-.206-.49-.02-.223.128-.298.109-.523-.135-1.577-.423-3.274-.505-3.99 0-1.791-2.712-3.78-3.703-4.771-1.297-1.297-1.242-.3-.121.82.057.057.327.384.54.528.166.112.26.024.425.193.08.083.019.16.102.263.095.119.336.265.435.343.077.06.187-.029.25.042.06.069.158.106.154.206-.013.354.3.543.24.616-.043.055-.175.011-.416-.185-.35-.284-.911-.893-1.528-1.372-.142-.11-.388-.041-.52-.156-.234-.203-.032-.368-.213-.567-.304-.332-.948-.677-1.123-.853-.43-.431.142-.88-.289-1.307-.723-.716-1.23-2.564-2.306-2.705-.094-.012-.499-.012-.823-.257-.168-.127-.199-.509-.383-.676-.087-.079-.29.093-.381.014-.201-.175-.179-.655-.36-.843-.48-.5-.758-.482-.78-.582zm7.918 20.61c.14-.105.17-.977-.122-1.215-.312-.254-1.006-.316-1.199-.137-.245.227-.125.936.213 1.246.253.233.97.211 1.108.106z" fill="#fefefe"/><path fill-rule="evenodd" clip-rule="evenodd" d="M8.411 24.832c.186.117.615-.273.804-.547.136-.197.378-1.213-.06-1.298-.32-.062-.627.324-.794.636-.215.4-.334.968.05 1.209zm-.751.486c-.096-.254-.797-.143-1.153 0-.284.114-.655.439-.592.699.056.233.529.349.796.266.419-.13 1.072-.638.949-.965z" fill="#fefefe"/><path fill-rule="evenodd" clip-rule="evenodd" d="M7.245 25.963c-.101.293.142.564.356.538.381-.047.71-.41.728-.76.013-.24-.397-.326-.675-.25-.06.159-.22.33-.409.472zm2.153-1.503c-.113-.067-.226.011-.339.017a1.72 1.72 0 01-.339.291c.042.1.017.281.123.299.185.03.408-.061.555-.16.123-.083.118-.378 0-.448z" fill="#fefefe"/><path fill-rule="evenodd" clip-rule="evenodd" d="M10.62 26.314c-.374.116-.908-.145-1.306-.358-.292-.157-.81-.521-.69-.715.061-.099.41.137.349.039-.15-.238-.418-.616-.685-.53-.332.106-.505.41-.492.759.007.204.358.378.562.378.09 0-.201-.15-.152-.228.072-.111.732.21 1.078.365.455.204.88.471 1.32.707l.017-.417z" fill="#fefefe"/><path d="M8.125 23.466a.098.098 0 100-.196.098.098 0 000 .196zm-.064.464a.08.08 0 100-.159.08.08 0 000 .159zm-1.608.938a.09.09 0 100-.18.09.09 0 000 .18zm.327.206a.068.068 0 100-.136.068.068 0 000 .136z" fill="#fefefe"/><path fill-rule="evenodd" clip-rule="evenodd" d="M8.962 28.46c-.062-.109-.785-.26-1.04-.102-.27.169-.453.621-.34.776.144.197.758.224 1.082.046.242-.134.36-.613.298-.72zm.055-.334c.133-.106-.112-.45-.306-.616-.138-.119-.942-.433-1.096-.154-.112.203.153.464.382.622.293.203.746.367 1.02.148zm.265.572c-.23.025-.27.507-.218.766.04.205.243.5.472.497.206-.002.391-.299.373-.489-.03-.297-.33-.808-.627-.774z" fill="#fefefe"/><path fill-rule="evenodd" clip-rule="evenodd" d="M9.742 29.07c.226.112.499-.01.517-.155.033-.261-.208-.534-.497-.598-.198-.045-.348.215-.337.411.121.063.234.195.317.342zm-.85-1.655c-.077.065-.032.152-.049.227.074.085.141.182.18.269.09-.012.238.031.272-.037.06-.118.027-.28-.029-.392-.046-.095-.293-.136-.374-.067z" fill="#fefefe"/><path fill-rule="evenodd" clip-rule="evenodd" d="M10.673 26.88c.026.268-.292.583-.546.815-.186.17-.589.46-.728.351-.07-.056.192-.252.098-.226-.226.064-.593.185-.572.376.026.236.248.397.542.44.171.026.384-.18.422-.316.017-.06-.164.11-.22.066-.079-.064.315-.454.51-.66.255-.272.56-.514.84-.77l-.346-.075z" fill="#fefefe"/><path d="M7.822 28.11c.01-.036-.018-.071-.064-.08-.045-.008-.09.015-.1.05-.01.037.018.073.063.08.046.009.09-.014.1-.05zm.375.112c.008-.029-.015-.058-.051-.064-.037-.007-.073.012-.081.04-.009.03.014.059.051.065.036.007.073-.012.081-.04zm.48 1.21c.01-.033-.016-.066-.058-.074-.042-.007-.083.013-.093.047-.01.033.017.066.059.073.041.008.083-.013.092-.046zm.234-.186c.007-.025-.012-.05-.044-.055-.031-.006-.062.01-.07.035-.006.025.013.05.045.055.031.006.062-.01.07-.035z" fill="#fefefe"/><path fill-rule="evenodd" clip-rule="evenodd" d="M25.523 13.77c.016.125.47.437.678.332.222-.112.45-.532.41-.715-.052-.232-.461-.394-.721-.284-.195.083-.384.545-.367.667zm-.115.33c-.115.078-.028.481.064.693.066.152.537.648.705.398.123-.183.004-.506-.114-.717-.152-.27-.42-.538-.655-.375zm-.048-.641c.162.024.3-.458.325-.732.02-.218-.05-.563-.205-.61-.14-.043-.333.218-.365.415-.048.31.038.895.246.927z" fill="#fefefe"/><path fill-rule="evenodd" clip-rule="evenodd" d="M25.135 12.979c-.127-.164-.34-.1-.385.044-.082.258.018.589.198.718.124.089.285-.143.323-.345-.068-.09-.113-.25-.136-.417zm.193 1.871c.067-.05.057-.147.085-.22a1.471 1.471 0 01-.059-.313c-.064-.008-.153-.085-.193-.023-.068.107-.082.28-.07.405.009.107.167.203.237.151z" fill="#fefefe"/><path fill-rule="evenodd" clip-rule="evenodd" d="M24 15.003c.044-.277.333-.528.558-.709.165-.133.504-.34.573-.198.035.072-.188.215-.119.208.168-.015.444-.058.474-.256a.546.546 0 00-.265-.567c-.11-.064-.301.1-.358.23-.026.057.136-.077.163-.02.04.082-.317.393-.496.56-.236.221-.497.4-.745.6l.216.152z" fill="#fefefe"/><path d="M26.212 14.377c-.015.034-.004.077.025.095.028.018.064.005.079-.03.015-.034.004-.076-.024-.095-.03-.018-.065-.005-.08.03zm-.228-.197c-.012.028-.003.062.02.077.023.014.052.004.064-.024.012-.028.004-.062-.02-.077-.023-.014-.052-.004-.064.024zm-.046-1.336c-.014.032-.004.071.023.088.026.016.06.004.073-.027.014-.032.004-.071-.022-.088-.027-.017-.06-.005-.074.027zm-.201.138c-.01.024-.003.054.017.066.02.013.045.004.056-.02.01-.024.003-.054-.017-.066-.02-.013-.045-.004-.056.02z" fill="#fefefe"/><path fill-rule="evenodd" clip-rule="evenodd" d="M14.004 25.156c.04.087.505.204.666.075.172-.138.285-.503.212-.627-.094-.158-.488-.175-.693-.03-.154.109-.225.495-.185.582zm-.032.27c-.085.086.075.361.2.494.09.095.607.342.703.117.07-.165-.102-.373-.25-.499-.189-.16-.48-.29-.653-.112zm-.174-.459c.147-.023.168-.41.133-.619-.029-.165-.16-.401-.307-.398-.131.004-.248.244-.234.397.021.24.218.648.408.62z" fill="#fefefe"/><path fill-rule="evenodd" clip-rule="evenodd" d="M13.5 24.67c-.146-.088-.32.011-.33.129a.478.478 0 00.323.478c.128.034.221-.176.212-.334a.659.659 0 01-.205-.273zm.557 1.327c.049-.052.02-.122.03-.183a.97.97 0 01-.117-.215c-.058.01-.153-.024-.175.031a.467.467 0 00.022.315c.03.076.19.108.24.052z" fill="#fefefe"/><path fill-rule="evenodd" clip-rule="evenodd" d="M12.922 26.44c-.02-.215.182-.471.343-.66.117-.138.373-.375.462-.288.046.045-.12.205-.06.183.144-.053.378-.153.363-.306-.02-.19-.162-.318-.35-.352-.111-.019-.245.149-.269.258-.01.049.105-.09.14-.055.052.052-.197.368-.32.536-.161.22-.354.417-.53.626l.22.057z" fill="#fefefe"/><path d="M14.737 25.43a.054.054 0 10.105.023.054.054 0 00-.105-.023zm-.242-.088a.044.044 0 10.085.019.044.044 0 00-.085-.019zm-.318-.97a.05.05 0 10.097.02.05.05 0 00-.097-.02zm-.147.151a.037.037 0 10.073.016.038.038 0 00-.074-.016z" fill="#fefefe"/><path fill-rule="evenodd" clip-rule="evenodd" d="M13.945 23.874c-.626.612-1.095 1.443-1.409 2.229l-.273-.243c.518-.312 1.07-1.257 1.548-2.082l.134.096z" fill="#fefefe"/><path fill-rule="evenodd" clip-rule="evenodd" d="M13.81 23.778c-.268-.266-.324-.78-.166-1.125.088-.19.405.112.607.167.046.212.296.378.5.441.03.192.258.48.088.574-.3.165-.784.184-1.028-.057z" fill="#fefefe"/><path fill-rule="evenodd" clip-rule="evenodd" d="M12.84 22.608c-.012.278.448.39.718.426.005-.135.034-.267.086-.38.088-.19.405.111.607.167a.482.482 0 01-.06-.274c-.137-.195-.35-.403-.592-.425-.353-.033-.745.186-.76.486z" fill="#fefefe"/><path fill-rule="evenodd" clip-rule="evenodd" d="M12.878 21.286c.07.344.247.635.485.85a.824.824 0 01.236-.014c.241.022.455.23.591.425.209-.05.157-.488.084-.562-.413-.419-.711-.025-1.396-.699zm2.018 2.479c.154.227.438.378.69.453.158-.162.325-.394.114-.676-.19-.254-.483-.361-.811-.387-.02.05-.065.105-.137.106.024.156.18.377.144.504z" fill="#fefefe"/><path fill-rule="evenodd" clip-rule="evenodd" d="M15.339 23.26c.652-.03-.683-1.665-1.002-.972a.385.385 0 01-.053.192c.277.073.608.473.605.675.16.013.313.045.45.105z" fill="#fefefe"/><path fill-rule="evenodd" clip-rule="evenodd" d="M14.888 23.155c.004-.202-.327-.602-.604-.675a.156.156 0 01-.094.067.491.491 0 00.06.274c.046.211.297.377.502.44.072 0 .117-.055.136-.106z" fill="#fefefe"/><path d="M14.88 21.486a.08.08 0 100-.158.08.08 0 000 .158zm.023.486a.08.08 0 100-.158.08.08 0 000 .158zm.523-.007a.08.08 0 100-.159.08.08 0 000 .159zm.448.494a.08.08 0 100-.159.08.08 0 000 .159zm-.208.359a.08.08 0 100-.158.08.08 0 000 .158z" fill="#fefefe"/><path fill-rule="evenodd" clip-rule="evenodd" d="M17.114 9.67c.04.629-.104 1.247-.308 1.75l.256.075c-.125-.445.03-1.16.167-1.78l-.115-.046z" fill="#fefefe"/><path fill-rule="evenodd" clip-rule="evenodd" d="M17.229 9.715a.532.532 0 00.613-.337c.043-.13-.263-.208-.395-.312-.123.055-.331-.036-.468-.139-.104.057-.358.029-.314.17.08.253.323.561.564.618z" fill="#fefefe"/><path fill-rule="evenodd" clip-rule="evenodd" d="M18.283 9.86c-.124.117-.417-.125-.574-.279a.498.498 0 00.133-.203c.043-.13-.263-.208-.395-.312.067-.007.122-.027.16-.07.162.01.371.06.508.202.199.207.301.537.168.663z" fill="#fefefe"/><path fill-rule="evenodd" clip-rule="evenodd" d="M18.882 9.318a.938.938 0 01-.651.031.878.878 0 00-.117-.152c-.136-.142-.345-.192-.507-.201-.085-.15.147-.289.22-.273.41.093.382.433 1.055.595zm-2.214-.284c-.186-.006-.405-.123-.572-.251-.006-.161.015-.357.257-.336.218.018.422.159.605.353a.122.122 0 00.021.127c-.085.046-.27.036-.31.107z" fill="#fefefe"/><path fill-rule="evenodd" clip-rule="evenodd" d="M16.674 8.561c-.327-.417 1.135-.228.977.242a.194.194 0 00-.062.108c-.179-.144-.538-.192-.631-.11a1.453 1.453 0 00-.284-.24z" fill="#fefefe"/><path fill-rule="evenodd" clip-rule="evenodd" d="M16.958 8.8c.093-.081.452-.033.631.111a.13.13 0 00.017.085c-.037.042-.092.063-.16.07-.122.054-.33-.037-.467-.14a.122.122 0 01-.021-.126z" fill="#fefefe"/><path d="M17.743 8.15c-.022-.027-.024-.063-.004-.08s.056-.01.079.018c.022.027.024.063.004.08s-.056.01-.079-.018zm-.239.178c-.023-.028-.025-.064-.005-.08.02-.018.056-.01.079.017.023.028.025.064.004.08-.02.018-.056.01-.078-.017zm-.27-.329c-.023-.028-.025-.064-.004-.08.02-.018.055-.01.078.018.023.027.025.063.004.08-.02.017-.055.009-.078-.018zm-.464-.085c-.023-.027-.025-.063-.005-.08s.056-.01.079.018c.023.027.024.063.004.08-.02.018-.056.01-.078-.018zm-.06.271c-.023-.028-.025-.064-.004-.08.02-.018.056-.01.078.017.023.028.025.064.005.08-.02.018-.056.01-.079-.017z" fill="#fefefe"/><path fill-rule="evenodd" clip-rule="evenodd" d="M15.382 28.798c-.164.334-.472.63-.491 1-.015.287.192.652.402.76.321-.128.557-.484.6-.82.043-.343-.25-.645-.375-.968l-.136.028zm.439-.085c.212.306.32.72.636.917.243.151.837-.004 1.034-.134.043-.344-.236-.76-.509-.961-.279-.205-.776.094-1.119.046l-.042.132zm.056-.496c.3-.13.676-.155.899-.393.172-.184.139-.723.06-.916-.29-.095-.697.075-.916.277-.224.206-.05.686-.15.974l.107.058zm-.372-.187c-.034-.326.058-.691-.102-.977-.123-.22-.768-.314-.975-.297-.18.246-.156.71-.03.98.128.275.775.195 1.018.377l.089-.084zm-.433.451c-.263-.108-.505-.329-.789-.324-.218.003-.557.457-.63.623.115.239.479.412.737.427.264.016.47-.512.71-.623-.01-.034-.02-.068-.028-.103zm-1.175-.749l-.076.236c.527.008.959.1 1.382.311l.052-.104c-.452-.026-.951-.158-1.358-.443z" fill="#fefefe"/><path fill-rule="evenodd" clip-rule="evenodd" d="M15.05 28.597c.158.024.28.14.387.259a.55.55 0 01.47-.22c-.113-.137-.106-.357-.045-.502-.15.081-.329-.05-.38-.144-.075.099-.159.22-.341.182.13.142.063.284-.091.425zm12.824-.439c-.163.334-.472.63-.491 1-.014.287.192.652.402.76.321-.129.558-.484.6-.82.043-.343-.25-.645-.375-.968l-.136.028zm.439-.085c.212.306.321.72.636.916.243.152.837-.003 1.034-.133.043-.344-.235-.761-.509-.961-.279-.205-.776.094-1.119.046l-.042.132zm.057-.496c.299-.13.675-.155.898-.393.172-.184.14-.724.06-.916-.29-.096-.697.075-.916.277-.224.206-.05.686-.15.974l.107.058zm-.373-.187c-.034-.326.058-.691-.101-.977-.123-.22-.768-.314-.976-.297-.179.246-.156.71-.03.98.128.275.775.195 1.019.377l.088-.084zm-.433.451c-.263-.108-.504-.329-.788-.324-.22.003-.557.457-.63.623.115.239.478.412.737.427.263.016.47-.512.709-.623l-.028-.103zm-1.175-.749l-.076.236c.528.008.96.1 1.382.31l.053-.103c-.453-.026-.952-.159-1.359-.443z" fill="#fefefe"/><path fill-rule="evenodd" clip-rule="evenodd" d="M27.542 27.957c.158.024.28.14.387.259a.55.55 0 01.471-.22c-.114-.137-.106-.358-.046-.502-.149.081-.329-.05-.379-.144-.076.098-.16.22-.342.182.13.142.064.284-.09.425zm-5.727-11.325c-.12.255-.344.481-.358.765-.01.218.14.497.293.58.233-.099.405-.37.436-.627.032-.262-.182-.493-.272-.739l-.1.021zm.32-.064c.154.233.233.55.462.7.177.115.609-.003.753-.103.031-.262-.172-.58-.37-.734-.204-.156-.566.072-.815.036l-.03.1zm.041-.379c.218-.1.49-.119.654-.301.125-.14.1-.552.043-.7-.21-.072-.507.058-.667.212-.162.157-.036.524-.109.744l.079.045zm-.272-.144c-.025-.249.042-.527-.074-.745-.09-.168-.559-.24-.71-.228-.13.189-.113.542-.022.749.093.21.564.15.741.288l.065-.064zm-.315.345c-.191-.082-.367-.251-.574-.248-.16.003-.405.35-.458.476.083.182.348.315.536.326.192.012.342-.39.516-.475a7.535 7.535 0 01-.02-.079zm-.855-.572l-.056.18a2.15 2.15 0 011.006.238l.039-.08a1.88 1.88 0 01-.99-.338z" fill="#fefefe"/><path fill-rule="evenodd" clip-rule="evenodd" d="M21.573 16.48c.115.018.203.106.281.197a.393.393 0 01.343-.168c-.083-.105-.077-.273-.033-.383-.109.062-.24-.039-.276-.11-.056.075-.116.168-.249.139.094.108.046.217-.066.325zm-3.35-1.15c.055-.114-.211-.682-.476-.739-.283-.06-.747.128-.812.306-.082.225.226.64.544.727.238.067.69-.182.744-.294zm.3-.191c.158.014.305-.376.336-.614.022-.17-.155-.9-.464-.81-.225.065-.295.412-.3.667-.006.326.104.729.428.757zm-.321.557c-.144-.13-.556.17-.738.378-.144.166-.275.496-.15.642.113.13.453.05.597-.091.226-.22.478-.76.291-.929z" fill="#fefefe"/><path fill-rule="evenodd" clip-rule="evenodd" d="M18.148 16.245c.031.22.276.315.404.228.229-.156.32-.495.218-.725-.071-.158-.362-.079-.515.061.014.12-.033.283-.107.436zm.885-1.668c-.094-.005-.14.082-.21.123-.03.105-.072.214-.122.297.059.05.103.175.177.151.128-.041.24-.172.302-.284.052-.094-.048-.28-.147-.287z" fill="#fefefe"/><path fill-rule="evenodd" clip-rule="evenodd" d="M20.423 15.365c-.202.197-.629.205-.953.198-.238-.004-.69-.067-.676-.23.007-.084.308-.048.236-.09-.174-.103-.47-.258-.612-.115-.178.177-.189.428-.066.647.071.128.353.124.483.058.058-.03-.178-.031-.171-.096.009-.095.536-.105.809-.12.358-.019.717.013 1.076.02l-.126-.272z" fill="#fefefe"/><path d="M17.894 14.359a.07.07 0 10-.065-.125.07.07 0 00.065.125zm.11.318a.057.057 0 10-.051-.102.057.057 0 00.051.102zm-.722 1.127a.065.065 0 10-.059-.116.065.065 0 00.059.116zm.277.026a.05.05 0 10-.045-.088.05.05 0 00.045.087z" fill="#fefefe"/><path fill-rule="evenodd" clip-rule="evenodd" d="M13.268 20.247c-.076-.049-.588.09-.699.276-.118.196-.087.546.036.608.157.078.559-.106.707-.325.112-.165.03-.51-.044-.559zm-.074-.232c.05-.11-.22-.25-.398-.294-.127-.03-.744.032-.752.26-.005.167.25.248.448.274.254.033.598-.01.702-.24zm.356.28c-.139.092-.006.413.112.561.093.118.32.241.465.164.13-.068.153-.32.078-.435-.116-.18-.476-.409-.655-.29z" fill="#fefefe"/><path fill-rule="evenodd" clip-rule="evenodd" d="M13.967 20.382c.18-.003.316-.17.28-.269-.065-.177-.308-.273-.514-.22-.142.037-.153.252-.081.374.098 0 .213.048.315.115zm-1.087-.781c-.027.067.03.108.044.162.075.03.15.07.203.113.054-.038.162-.058.162-.113 0-.095-.074-.188-.146-.242-.061-.045-.233.01-.262.08z" fill="#fefefe"/><path fill-rule="evenodd" clip-rule="evenodd" d="M13.846 18.676c.104.162.003.469-.083.7-.063.17-.226.488-.35.463-.064-.012.04-.224-.012-.177-.124.116-.32.313-.243.428.094.143.288.173.49.105.119-.04.187-.242.167-.341-.008-.045-.068.124-.118.114-.072-.015.052-.393.109-.59.075-.257.19-.512.285-.767l-.245.065z" fill="#fefefe"/><path d="M12.424 20.397c-.006-.026-.035-.04-.067-.03-.032.01-.053.039-.048.065.005.026.035.04.067.03.031-.01.053-.038.048-.065zm.277-.052c-.004-.021-.028-.032-.054-.025-.026.008-.043.032-.039.053.005.022.029.033.055.025.025-.008.043-.031.038-.053zm.703.618c-.005-.025-.032-.037-.062-.028-.029.009-.048.035-.044.06.005.024.033.037.062.028.029-.01.049-.036.044-.06zm.089-.196c-.003-.019-.024-.028-.046-.022-.022.007-.037.028-.034.046.004.018.025.028.047.021.022-.007.037-.027.033-.045z" fill="#fefefe"/><path fill-rule="evenodd" clip-rule="evenodd" d="M20.418 11.569c-.22.429-.557.778-.889 1.03l.14.149c.092-.341.474-.75.807-1.104l-.058-.075z" fill="#fefefe"/><path fill-rule="evenodd" clip-rule="evenodd" d="M20.476 11.643c.15.145.392.141.535.019.08-.068-.091-.24-.137-.36-.102-.012-.203-.154-.253-.275-.09-.003-.247-.121-.273-.01-.046.196-.008.494.128.626z" fill="#fefefe"/><path fill-rule="evenodd" clip-rule="evenodd" d="M21.111 12.152c-.127.028-.224-.246-.267-.408a.38.38 0 00.167-.082c.079-.068-.091-.24-.137-.36.047.022.09.03.132.017.104.07.22.185.255.332.05.214-.012.47-.15.501z" fill="#fefefe"/><path fill-rule="evenodd" clip-rule="evenodd" d="M21.718 12.03a.716.716 0 01-.44-.234.708.708 0 00-.017-.146.587.587 0 00-.255-.33c.003-.133.21-.133.251-.094.234.222.082.434.46.804zm-1.343-1.054c-.12-.077-.218-.24-.278-.39.06-.108.15-.228.301-.12.136.098.215.27.259.47a.094.094 0 00-.036.091c-.074-.002-.191-.081-.246-.05z" fill="#fefefe"/><path fill-rule="evenodd" clip-rule="evenodd" d="M20.564 10.667c-.051-.402.835.295.547.542a.147.147 0 00-.083.047c-.061-.164-.278-.337-.371-.32a1.113 1.113 0 00-.093-.269z" fill="#fefefe"/><path fill-rule="evenodd" clip-rule="evenodd" d="M20.657 10.936c.093-.017.31.156.37.32a.103.103 0 00-.02.063.182.182 0 01-.133-.017c-.102-.012-.203-.153-.253-.274a.094.094 0 01.036-.092z" fill="#fefefe"/><path d="M21.427 10.817c-.004-.027.009-.052.029-.055.02-.003.04.016.045.043.004.027-.009.052-.03.055-.02.003-.04-.016-.044-.043zm-.227.022c-.004-.027.009-.052.029-.055.02-.004.04.016.045.043.004.027-.009.051-.03.055-.02.003-.04-.016-.044-.043zm-.048-.322c-.004-.027.009-.051.03-.055.02-.003.04.016.044.043.004.027-.009.052-.029.055-.02.004-.04-.016-.045-.043zm-.272-.237c-.004-.028.008-.052.029-.055.02-.004.04.016.045.043.004.027-.01.051-.03.055-.02.003-.04-.016-.044-.043zm-.145.154c-.004-.027.008-.052.029-.055.02-.003.04.016.045.043.004.027-.01.052-.03.055-.02.003-.04-.016-.044-.043z" fill="#fefefe"/><path fill-rule="evenodd" clip-rule="evenodd" d="M21.488 12.2c-.485.405-1.068.654-1.595.786l.09.25c.286-.362.954-.66 1.536-.915l-.031-.12z" fill="#fefefe"/><path fill-rule="evenodd" clip-rule="evenodd" d="M21.519 12.32c.105.252.4.37.634.296.13-.041.013-.335.02-.503-.117-.066-.167-.288-.165-.459-.108-.05-.235-.273-.323-.153-.156.214-.262.592-.166.82z" fill="#fefefe"/><path fill-rule="evenodd" clip-rule="evenodd" d="M22.024 13.257c-.167-.03-.144-.41-.113-.628a.497.497 0 00.242-.012c.13-.042.013-.336.02-.504.044.05.093.083.15.089.088.136.17.334.137.528-.05.283-.256.56-.436.527z" fill="#fefefe"/><path fill-rule="evenodd" clip-rule="evenodd" d="M22.815 13.42a.937.937 0 01-.41-.506.898.898 0 00.055-.184c.034-.194-.049-.393-.137-.529.07-.157.32-.052.349.016.168.387-.123.564.143 1.203zm-1.078-1.953c-.104-.155-.139-.4-.134-.61.126-.1.296-.199.423.008.113.188.12.434.072.697a.122.122 0 00-.09.092c-.088-.04-.188-.196-.27-.187z" fill="#fefefe"/><path fill-rule="evenodd" clip-rule="evenodd" d="M22.123 11.192c.144-.51.854.782.382.932a.192.192 0 00-.125.014c.01-.23-.162-.548-.282-.575.024-.13.034-.254.025-.37z" fill="#fefefe"/><path fill-rule="evenodd" clip-rule="evenodd" d="M22.097 11.563c.12.027.293.346.283.575a.13.13 0 00-.058.064.237.237 0 01-.15-.088c-.117-.067-.167-.289-.164-.46a.122.122 0 01.09-.091z" fill="#fefefe"/><path d="M23.085 11.813c.009-.035.037-.058.063-.051.026.006.04.04.031.074-.008.034-.036.057-.062.05-.026-.006-.04-.039-.032-.073zm-.283-.089c.008-.035.036-.057.062-.051.026.006.04.04.032.074-.009.035-.037.057-.063.051-.026-.006-.04-.04-.031-.074zm.106-.412c.008-.034.036-.057.062-.05.026.006.04.039.032.073-.009.035-.037.057-.063.051-.026-.006-.04-.04-.031-.074zm-.206-.425c.008-.035.036-.057.062-.05.026.005.04.039.032.073-.009.035-.037.057-.062.051-.026-.006-.04-.04-.032-.074zm-.253.111c.008-.034.036-.057.062-.05.026.006.04.039.032.073-.009.035-.037.058-.063.051-.026-.006-.04-.04-.031-.074z" fill="#fefefe"/><path fill-rule="evenodd" clip-rule="evenodd" d="M24.952 22.343c-.405-.484-.654-1.067-.787-1.594l-.251.092c.364.285.662.952.919 1.533l.119-.03z" fill="#fefefe"/><path fill-rule="evenodd" clip-rule="evenodd" d="M24.834 22.374a.533.533 0 00-.295.635c.042.13.336.012.503.018.067-.117.289-.166.459-.164.05-.108.273-.236.152-.324-.213-.156-.592-.26-.819-.165z" fill="#fefefe"/><path fill-rule="evenodd" clip-rule="evenodd" d="M23.898 22.881c.03-.167.41-.145.628-.114a.5.5 0 00.013.242c.041.13.335.012.503.018-.05.045-.083.095-.088.15-.136.09-.334.172-.528.139-.284-.05-.561-.255-.528-.435z" fill="#fefefe"/><path fill-rule="evenodd" clip-rule="evenodd" d="M23.736 23.672a.939.939 0 01.506-.41.883.883 0 00.184.054c.194.033.392-.05.528-.138.157.07.053.32-.016.35-.386.168-.564-.123-1.202.144zm1.952-1.08c.155-.105.4-.14.61-.136.1.127.2.297-.008.423-.187.114-.434.121-.697.073a.122.122 0 00-.092-.089c.041-.088.196-.19.187-.271z" fill="#fefefe"/><path fill-rule="evenodd" clip-rule="evenodd" d="M25.963 22.977c.51.143-.78.855-.93.383a.192.192 0 00-.015-.125c.23.011.548-.163.575-.283.129.023.254.034.37.025z" fill="#fefefe"/><path fill-rule="evenodd" clip-rule="evenodd" d="M25.593 22.953c-.027.12-.346.293-.575.283a.132.132 0 00-.064-.058c.005-.056.038-.105.088-.15.066-.117.288-.167.459-.165a.122.122 0 01.092.09z" fill="#fefefe"/><path d="M25.345 23.94c.034.009.057.037.05.063-.006.026-.039.04-.073.031-.035-.008-.058-.036-.051-.062.006-.026.039-.04.074-.032zm.088-.283c.035.008.058.036.051.062-.006.026-.04.04-.074.032-.034-.009-.057-.037-.05-.063.006-.026.039-.04.073-.031zm.412.105c.034.008.057.036.05.062-.006.026-.039.04-.073.032-.035-.009-.058-.037-.051-.062.006-.026.039-.04.074-.032zm.425-.206c.034.008.057.036.05.062-.006.026-.039.04-.073.032-.035-.009-.058-.037-.051-.063.006-.026.039-.04.074-.031zm-.113-.254c.035.008.058.036.051.062-.006.026-.04.04-.074.032-.034-.009-.057-.036-.05-.062.006-.026.039-.04.073-.032z" fill="#fefefe"/><path fill-rule="evenodd" clip-rule="evenodd" d="M22.57 21.584c-.334-.094-.63-.271-1.002-.282-.286-.008-.65.111-.759.232.13.184.486.32.822.344.343.024.645-.144.967-.216l-.028-.078zm.085.252c-.305.122-.719.184-.915.366-.152.14.004.48.135.593.344.025.76-.136.96-.293.204-.16-.095-.445-.048-.642l-.132-.024zm.497.032c.131.172.156.388.395.516.184.099.723.08.915.034.095-.166-.076-.4-.278-.526-.206-.129-.686-.029-.974-.085l-.058.061zm.187-.214c.325-.02.69.033.976-.059.22-.07.313-.441.296-.56-.247-.103-.71-.09-.98-.017-.275.074-.194.445-.376.586l.084.05zm-.453-.249c.108-.15.328-.29.323-.453-.003-.125-.458-.319-.624-.36-.238.065-.41.274-.425.423-.016.151.512.269.624.407l.102-.017zm.747-.675a64.945 64.945 0 01-.235-.044 1.19 1.19 0 01-.31.795l.104.03c.026-.26.157-.547.441-.781z" fill="#fefefe"/><path fill-rule="evenodd" clip-rule="evenodd" d="M22.77 21.393c-.024.091-.14.16-.259.223.158.068.231.171.221.27.137-.065.358-.061.502-.027-.082-.085.05-.189.144-.218-.1-.043-.221-.09-.183-.196-.142.074-.284.037-.426-.052zm-1.495-.623c.534-.043 1.08-.25 1.535-.496.01.074.022.148.033.221-.366-.056-.995.172-1.543.372l-.025-.098z" fill="#fefefe"/><path fill-rule="evenodd" clip-rule="evenodd" d="M21.3 20.867c.022.23-.153.494-.362.594-.116.055-.147-.211-.22-.317.061-.117.009-.293-.062-.403.06-.101.067-.326.183-.304.206.04.44.221.46.43z" fill="#fefefe"/><path fill-rule="evenodd" clip-rule="evenodd" d="M21.297 21.797c.115-.125-.057-.359-.17-.481a.629.629 0 01-.19.145c-.115.055-.146-.211-.22-.317a.295.295 0 01-.078.153c-.012.145.006.326.111.431.154.154.424.205.547.07z" fill="#fefefe"/><path fill-rule="evenodd" clip-rule="evenodd" d="M20.762 22.403a.956.956 0 00.105-.589.517.517 0 01-.116-.086c-.105-.105-.124-.286-.112-.431-.117-.058-.264.167-.259.231.03.358.324.29.382.875zm.023-1.955c.017-.167-.057-.349-.147-.484-.137.015-.307.058-.318.273-.01.195.085.36.23.5.028-.016.071-.023.106.004.05-.082.063-.247.129-.293z" fill="#fefefe"/><path fill-rule="evenodd" clip-rule="evenodd" d="M20.379 20.512c-.318-.242-.331 1.05.09.85a.237.237 0 01.1-.07c-.102-.143-.1-.46-.02-.554a.851.851 0 01-.17-.226z" fill="#fefefe"/><path fill-rule="evenodd" clip-rule="evenodd" d="M20.55 20.738c-.081.093-.083.41.02.554a.094.094 0 01.069.005.294.294 0 00.079-.153c.061-.117.009-.293-.063-.403-.034-.027-.077-.02-.106-.003z" fill="#fefefe"/><path d="M19.9 21.525a.049.049 0 10-.063.075.049.049 0 00.062-.075zm.18-.238a.049.049 0 10-.063.075.049.049 0 00.063-.075zm-.25-.202a.049.049 0 10-.062.075.049.049 0 00.062-.075zm-.017-.408a.049.049 0 10-.062.075.049.049 0 00.062-.075zm.24-.087a.049.049 0 10-.063.075.049.049 0 00.063-.075z" fill="#fefefe"/><path fill-rule="evenodd" clip-rule="evenodd" d="M24.99 18.825c.042.087.505.204.667.075.172-.138.285-.503.211-.627-.093-.158-.487-.175-.692-.03-.155.11-.225.496-.185.582zm-.032.27c-.084.086.076.361.2.494.09.095.608.342.704.117.07-.164-.102-.373-.25-.499-.19-.16-.48-.29-.654-.112zm-.173-.459c.147-.022.168-.41.133-.618-.029-.165-.16-.402-.307-.398-.132.003-.248.243-.234.396.02.24.218.649.408.62z" fill="#fefefe"/><path fill-rule="evenodd" clip-rule="evenodd" d="M24.486 18.34c-.145-.089-.319.01-.33.128a.477.477 0 00.324.478c.127.035.22-.175.212-.333a.659.659 0 01-.206-.274zm.558 1.327c.049-.053.02-.123.03-.184a.96.96 0 01-.117-.215c-.058.01-.153-.023-.175.031-.037.096-.014.226.022.316.03.076.189.107.24.052z" fill="#fefefe"/><path fill-rule="evenodd" clip-rule="evenodd" d="M23.909 20.109c-.02-.215.182-.471.342-.66.118-.138.373-.374.463-.288.046.045-.12.205-.06.183.144-.053.378-.153.362-.306-.019-.19-.162-.318-.35-.351-.11-.02-.244.148-.268.257-.01.05.104-.09.14-.055.052.052-.197.368-.32.536-.162.22-.354.417-.531.626l.222.058z" fill="#fefefe"/><path d="M25.724 19.099a.054.054 0 10.105.023.054.054 0 00-.105-.023zm-.243-.087a.044.044 0 10.086.018.044.044 0 00-.086-.018zm-.317-.971a.05.05 0 10.097.021.05.05 0 00-.097-.021zm-.148.151a.037.037 0 10.074.016.038.038 0 00-.074-.016z" fill="#fefefe"/><path fill-rule="evenodd" clip-rule="evenodd" d="M24.932 17.544c-.626.612-1.095 1.442-1.409 2.228l-.273-.243c.519-.311 1.07-1.257 1.548-2.082l.134.097z" fill="#fefefe"/><path fill-rule="evenodd" clip-rule="evenodd" d="M24.798 17.448c-.27-.267-.325-.78-.167-1.125.088-.19.405.112.607.167.046.212.296.378.5.441.03.191.258.48.088.574-.3.165-.784.184-1.028-.057z" fill="#fefefe"/><path fill-rule="evenodd" clip-rule="evenodd" d="M23.827 16.278c-.012.277.448.39.718.425.005-.135.034-.266.086-.38.088-.19.405.112.607.167a.481.481 0 01-.06-.273c-.137-.195-.35-.403-.592-.426-.353-.032-.746.187-.76.487z" fill="#fefefe"/><path fill-rule="evenodd" clip-rule="evenodd" d="M23.865 14.955c.07.345.248.635.485.85a.819.819 0 01.236-.014c.242.022.455.23.592.426.208-.05.156-.489.083-.562-.413-.42-.71-.026-1.396-.7zm2.018 2.479c.155.228.438.379.69.454.158-.162.325-.394.114-.676-.19-.254-.483-.361-.811-.388-.02.051-.065.106-.137.107.024.156.18.377.144.503z" fill="#fefefe"/><path fill-rule="evenodd" clip-rule="evenodd" d="M26.326 16.93c.652-.03-.683-1.664-1.002-.972a.381.381 0 01-.053.192c.277.073.608.473.605.675a1.4 1.4 0 01.45.105z" fill="#fefefe"/><path fill-rule="evenodd" clip-rule="evenodd" d="M25.875 16.825c.004-.202-.327-.602-.605-.675a.155.155 0 01-.093.067.484.484 0 00.061.274c.045.211.296.377.5.44.073 0 .118-.055.137-.106z" fill="#fefefe"/><path d="M25.867 15.156a.08.08 0 100-.159.08.08 0 000 .159zm.023.486a.08.08 0 100-.159.08.08 0 000 .159zm.524-.007a.08.08 0 100-.158.08.08 0 000 .158zm.447.493a.08.08 0 100-.159.08.08 0 000 .159zm-.208.36a.08.08 0 100-.158.08.08 0 000 .158z" fill="#fefefe"/><path fill-rule="evenodd" clip-rule="evenodd" d="M26.4 21.188c.264.245.626.357.923-.06.05-.07.255-.035.33-.103-.167-.451-.538-.605-.991-.615l-.261.778z" fill="#fefefe"/><path fill-rule="evenodd" clip-rule="evenodd" d="M26.007 20.79c.218-.127.406-.12.655-.38-.07.258-.137.358-.082.522-.14.062-.085.095-.035.37-.24-.147-.405-.355-.538-.513z" fill="#fefefe"/><path fill-rule="evenodd" clip-rule="evenodd" d="M26.12 20.922c-.491-.071-1.018-.093-1.504 0v-.153a3.43 3.43 0 001.502-.035l.002.188zm-.408-1.096c-.485.404-1.068.652-1.595.785l.091.25c.286-.362.953-.66 1.535-.916l-.03-.12z" fill="#fefefe"/><path fill-rule="evenodd" clip-rule="evenodd" d="M25.743 19.946c.106.251.4.37.634.296.13-.042.013-.336.02-.503-.117-.067-.167-.289-.165-.46-.108-.05-.235-.272-.323-.152-.156.213-.262.591-.166.819z" fill="#fefefe"/><path fill-rule="evenodd" clip-rule="evenodd" d="M26.249 20.883c-.168-.031-.145-.41-.114-.628a.496.496 0 00.243-.013c.13-.041.012-.335.018-.503.046.05.095.082.15.088.09.136.172.335.138.528-.05.284-.255.561-.435.528z" fill="#fefefe"/><path fill-rule="evenodd" clip-rule="evenodd" d="M27.04 21.046a.938.938 0 01-.41-.507.88.88 0 00.054-.184c.035-.193-.048-.392-.137-.528.07-.157.32-.052.35.016.168.387-.123.564.143 1.203zm-1.078-1.953c-.105-.155-.14-.4-.135-.611.127-.1.297-.198.423.009.114.187.12.434.072.697a.122.122 0 00-.09.092c-.087-.042-.188-.197-.27-.187z" fill="#fefefe"/><path fill-rule="evenodd" clip-rule="evenodd" d="M26.348 18.818c.144-.51.854.781.381.931a.192.192 0 00-.124.014c.01-.229-.162-.548-.283-.575.024-.13.034-.254.026-.37z" fill="#fefefe"/><path fill-rule="evenodd" clip-rule="evenodd" d="M26.322 19.187c.12.027.293.346.283.576a.13.13 0 00-.058.063c-.056-.005-.105-.037-.15-.088-.117-.066-.167-.288-.164-.459a.122.122 0 01.089-.092z" fill="#fefefe"/><path d="M27.31 19.438c.009-.034.037-.057.062-.05.026.005.04.039.032.073-.008.035-.036.057-.062.051-.026-.006-.04-.04-.032-.074zm-.284-.089c.008-.035.036-.057.062-.051.026.006.04.04.032.074-.009.035-.037.057-.062.051-.026-.006-.04-.04-.032-.074zm.106-.412c.009-.034.037-.057.063-.05.026.006.04.039.031.073-.008.035-.036.058-.062.051-.026-.006-.04-.04-.032-.074zm-.206-.425c.009-.034.037-.057.063-.05.026.006.04.04.031.074-.008.034-.036.057-.062.05-.026-.006-.04-.039-.032-.074zm-.253.112c.008-.035.036-.057.062-.051.026.006.04.04.032.074-.009.034-.037.057-.063.05-.025-.006-.04-.039-.031-.073z" fill="#fefefe"/><path fill-rule="evenodd" clip-rule="evenodd" d="M27.272 31.246c-.073.244-.03.508.328.565.06.01.102.152.169.178.233-.247.214-.531.079-.822l-.576.079z" fill="#fefefe"/><path fill-rule="evenodd" clip-rule="evenodd" d="M27.402 30.87c.148.1.203.22.446.297-.186.037-.27.026-.357.112-.084-.07-.087-.024-.245.094.018-.198.097-.368.156-.502z" fill="#fefefe"/><path fill-rule="evenodd" clip-rule="evenodd" d="M27.353 30.984a3.252 3.252 0 00-.472-.954l.097-.048c.091.322.24.648.494.942l-.12.06zm3.234-14.488c.253-.035.476-.181.38-.532-.015-.058.097-.155.093-.227-.321-.11-.572.023-.781.267l.308.492z" fill="#fefefe"/><path fill-rule="evenodd" clip-rule="evenodd" d="M30.192 16.532c.029-.176.117-.276.087-.528.11.154.135.235.249.28-.03.103.013.088.186.184-.188.065-.376.062-.522.064z" fill="#fefefe"/><path fill-rule="evenodd" clip-rule="evenodd" d="M30.315 16.53c-.26.236-.508.515-.675.822l-.084-.069c.256-.215.492-.486.655-.837l.104.084zm3.103.726c.172.31.269.732.514.93.19.154.506.147.65.011.02-.351-.142-.737-.355-.94-.219-.206-.521-.091-.782-.137l-.027.136zm.091-.436c.278-.04.595.065.834-.122.185-.144.278-.753.256-.994-.218-.207-.594-.16-.822-.013-.232.15-.196.743-.344 1.027l.076.102zm-.318-.293c.012-.333.122-.682.035-1-.067-.244-.444-.478-.6-.501-.163.213-.184.662-.12.958.064.302.448.38.61.61l.075-.067zm-.252.243c-.232-.13-.449-.39-.696-.387-.19.003-.47.536-.529.73.107.282.43.488.654.507.23.02.393-.6.598-.73l-.027-.12zm.161.61c-.162.183-.392.292-.485.55-.071.197.123.724.212.87.2.014.439-.228.536-.453.099-.23-.19-.672-.184-.942l-.08-.025zm-.902.689l.134.183c.183-.47.39-.812.675-1.089l-.053-.098c-.17.394-.426.777-.756 1.004z" fill="#fefefe"/><path fill-rule="evenodd" clip-rule="evenodd" d="M33.172 17.457c.07-.13.188-.183.305-.22a.734.734 0 01.008-.531c-.13.035-.277-.08-.355-.205.005.174-.145.27-.225.27.041.117.096.251.009.396.14-.046.214.082.258.29zm-2.121 2.183c-.096-.016-.435.23-.406.397.03.179.288.43.433.442.184.015.401-.232.38-.437-.014-.153-.312-.387-.407-.402zm-.216-.153c-.032-.097-.351-.126-.53-.11-.128.013-.607.23-.462.402.106.125.374.115.559.08.236-.046.497-.172.433-.372zm.485.11c-.056.107.269.309.467.387.156.062.428.09.5-.007.065-.087-.083-.28-.222-.345-.218-.102-.672-.172-.745-.035z" fill="#fefefe"/><path fill-rule="evenodd" clip-rule="evenodd" d="M31.73 19.546c.15-.052.154-.213.058-.277-.172-.114-.44-.118-.58-.021-.094.066.039.228.18.3a.807.807 0 01.342-.002zm-1.433-.28c.02.057.095.072.143.108.083.002.173.01.246.029.02-.044.099-.089.062-.13a.564.564 0 00-.283-.138c-.082-.017-.19.07-.168.131z" fill="#fefefe"/><path fill-rule="evenodd" clip-rule="evenodd" d="M30.498 18.312c.195.091.313.347.393.543.06.144.133.425.012.441-.063.008-.115-.178-.127-.128-.028.12-.062.32.078.385.174.08.358.049.483-.058.073-.062-.003-.231-.085-.3-.037-.03.024.112-.024.118-.071.01-.217-.307-.299-.468-.107-.212-.178-.433-.268-.65-.054.04-.109.078-.163.117z" fill="#fefefe"/><path d="M30.438 19.983c-.022-.019-.056-.02-.076-.004-.02.016-.02.043.002.062.022.018.057.02.077.004.02-.016.02-.044-.003-.062zm.2-.115a.051.051 0 00-.062-.003c-.016.013-.015.035.002.05.018.015.046.016.063.003.016-.013.015-.035-.003-.05zm1.002.265c-.02-.017-.052-.019-.071-.004-.019.015-.018.04.003.057.02.017.052.019.07.004.02-.015.018-.04-.002-.057zm-.055-.171c-.015-.012-.04-.014-.054-.003-.014.012-.013.031.002.044.016.013.04.014.054.003.014-.011.013-.03-.002-.044z" fill="#fefefe"/><path fill-rule="evenodd" clip-rule="evenodd" d="M19.348 24.52c-.208.278-.28.637.151.88.072.04.06.242.132.308.416-.206.526-.579.49-1.016l-.773-.172z" fill="#fefefe"/><path fill-rule="evenodd" clip-rule="evenodd" d="M19.692 24.102c.144.197.156.378.43.59-.255-.04-.358-.094-.51-.025-.073-.129-.099-.072-.358.004.117-.245.3-.425.438-.569z" fill="#fefefe"/><path fill-rule="evenodd" clip-rule="evenodd" d="M19.576 24.223c.02-.478-.012-.987-.151-1.444l.148-.016c-.037.456 0 .944.184 1.44l-.181.02zm-1.396-.434c-.026-.094-.394-.295-.533-.197-.148.105-.264.446-.213.582.065.172.383.262.558.156.132-.08.215-.449.189-.541zm.045-.261c.074-.07-.037-.37-.13-.525-.066-.11-.467-.45-.56-.244-.068.15.057.387.168.538.143.194.37.376.522.231zm.11.486c-.12-.005-.163.375-.148.587.011.168.102.426.22.45.108.02.218-.196.217-.35-.001-.24-.134-.68-.289-.687z" fill="#fefefe"/><path fill-rule="evenodd" clip-rule="evenodd" d="M18.557 24.361c.111.114.258.048.275-.067.029-.204-.083-.448-.23-.531-.1-.058-.19.133-.194.29.06.064.112.182.149.308zm-.363-1.413c-.043.043-.024.117-.036.176.034.075.064.16.08.234.048 0 .122.051.143 0a.565.565 0 00.003-.315c-.02-.08-.145-.141-.19-.095z" fill="#fefefe"/><path fill-rule="evenodd" clip-rule="evenodd" d="M19.141 22.718c.001.215-.179.432-.321.59-.104.114-.326.301-.393.2-.035-.054.111-.182.061-.17-.12.025-.316.081-.314.235.002.192.11.344.26.412.088.04.207-.102.234-.206.012-.046-.09.07-.117.029-.038-.06.184-.328.294-.47.146-.19.315-.349.472-.523a43.167 43.167 0 00-.176-.097z" fill="#fefefe"/><path d="M17.607 23.384c.007-.028-.006-.06-.03-.071-.022-.012-.047.001-.054.03-.007.027.006.059.03.07.023.012.047-.001.054-.029zm.189.131a.054.054 0 00-.023-.058c-.02-.009-.04.002-.045.024-.005.023.005.048.024.058.019.009.039-.002.044-.024zm.193 1.017c.006-.026-.006-.055-.027-.066-.022-.01-.044.002-.05.027-.007.026.005.055.026.066.022.01.044-.001.05-.027zm.13-.122c.004-.02-.005-.042-.021-.05s-.033.001-.038.02c-.005.02.004.043.02.05.016.009.034 0 .039-.02z" fill="#fefefe"/><path fill-rule="evenodd" clip-rule="evenodd" d="M23.023 24.004c-.039.084.178.585.382.671.217.092.568.01.614-.125.057-.17-.189-.553-.434-.672-.184-.09-.523.044-.562.126zm-.225.11c-.121-.035-.224.26-.242.447-.013.134.14.753.374.727.17-.019.215-.29.213-.495-.003-.264-.096-.607-.345-.68zm.232-.404c.114.128.422-.054.555-.195.107-.113.2-.36.1-.498-.09-.123-.348-.109-.455-.016-.167.144-.346.544-.2.709z" fill="#fefefe"/><path fill-rule="evenodd" clip-rule="evenodd" d="M23.059 23.273c-.03-.184-.219-.297-.315-.246-.171.092-.233.353-.149.556.058.138.278.118.392.027a.638.638 0 01.072-.337zm-.637 1.219c.071.018.105-.045.158-.068a.9.9 0 01.085-.223c-.046-.05-.082-.157-.138-.149-.097.014-.18.104-.225.185-.037.068.044.235.12.255z" fill="#fefefe"/><path fill-rule="evenodd" clip-rule="evenodd" d="M21.34 23.644c.15-.13.476-.072.724-.017.182.04.529.159.522.289-.003.067-.234-.008-.178.037.135.11.365.28.47.186.132-.117.135-.319.036-.515-.058-.115-.273-.155-.371-.12-.044.015.137.052.133.104-.005.075-.408.004-.616-.026-.273-.038-.548-.119-.823-.178l.102.24z" fill="#fefefe"/><path d="M23.298 24.841c-.026.01-.036.042-.021.073.014.03.047.048.073.039.026-.01.035-.042.02-.072-.013-.031-.046-.049-.072-.04zm-.093-.274c-.021.007-.03.033-.017.058.011.025.038.04.06.032.02-.007.028-.034.016-.059-.011-.025-.038-.039-.06-.031zm.526-.805c-.024.008-.033.038-.02.066.014.029.044.045.068.036.024-.008.033-.038.02-.066-.013-.029-.044-.045-.068-.036zm-.212-.062c-.018.006-.025.029-.015.05.01.022.033.034.051.028.018-.007.025-.03.015-.05-.01-.022-.033-.035-.051-.028z" fill="#fefefe"/><path fill-rule="evenodd" clip-rule="evenodd" d="M12.124 5.967c.348-.009.673-.174.596-.664-.012-.081.154-.197.16-.294-.42-.199-.78-.054-1.1.245l.344.713z" fill="#fefefe"/><path fill-rule="evenodd" clip-rule="evenodd" d="M11.583 5.957c.065-.234.2-.356.197-.703.126.225.147.34.295.416-.055.137.005.122.225.278-.264.06-.519.029-.717.009z" fill="#fefefe"/><path fill-rule="evenodd" clip-rule="evenodd" d="M11.75 5.973c-.387.282-.766.623-1.04 1.015l-.103-.106c.38-.254.74-.585 1.015-1.038l.128.13zm6.597 4.947c.272.1.566.043.63-.446.012-.081.17-.139.2-.23-.275-.32-.592-.294-.916-.11l.086.786z" fill="#fefefe"/><path fill-rule="evenodd" clip-rule="evenodd" d="M17.93 10.741c.11-.202.245-.276.331-.607.04.254.028.369.124.488-.078.113-.027.117.103.334-.22-.025-.41-.134-.558-.215z" fill="#fefefe"/><path fill-rule="evenodd" clip-rule="evenodd" d="M18.056 10.808a3.404 3.404 0 00-1.064.64l-.053-.132a2.572 2.572 0 001.05-.67l.067.162zM14.88 13.16c.064-.68-.123-1.454-.395-2.135l.351.064c-.176.426.024 1.314.202 2.087l-.158-.015z" fill="#fefefe"/><path fill-rule="evenodd" clip-rule="evenodd" d="M15.038 13.177c.363.082.728.425.832.731.058.17-.362.08-.544.121-.166-.132-.452-.15-.64-.115-.142-.124-.49-.24-.426-.372a.728.728 0 01.778-.365z" fill="#fefefe"/><path fill-rule="evenodd" clip-rule="evenodd" d="M16.479 13.623c-.167-.202-.57-.1-.787-.019a.985.985 0 01.178.304c.058.17-.363.08-.544.121a.598.598 0 01.217.17c.222.085.508.148.696.068.276-.116.42-.426.24-.644z" fill="#fefefe"/><path fill-rule="evenodd" clip-rule="evenodd" d="M17.289 14.575a2.033 2.033 0 00-.888-.41.577.577 0 01-.161.102c-.189.08-.475.016-.696-.068-.119.118.196.408.295.431.563.134.529-.262 1.45-.055zm-3.026-.961a1.454 1.454 0 00-.785-.05c-.01.177.016.408.346.525.298.105.578.065.831-.046-.018-.043-.02-.1.031-.129-.115-.101-.368-.196-.423-.3z" fill="#fefefe"/><path fill-rule="evenodd" clip-rule="evenodd" d="M14.264 14.146c-.452.279 1.546.911 1.338.294a.357.357 0 01-.083-.157c-.247.058-.738-.095-.864-.24a1.229 1.229 0 01-.391.103z" fill="#fefefe"/><path fill-rule="evenodd" clip-rule="evenodd" d="M14.655 14.044c.126.144.617.297.864.24a.094.094 0 01.025-.085.598.598 0 00-.217-.17c-.167-.132-.453-.15-.64-.115-.052.03-.05.086-.032.13z" fill="#fefefe"/><path d="M15.718 15.224c-.032.017-.035.056-.007.087.027.031.075.042.107.025.031-.017.035-.056.007-.087-.028-.031-.076-.042-.107-.025zm-.324-.337c-.032.018-.035.057-.007.088.027.03.075.042.107.025.031-.018.035-.057.007-.088-.028-.03-.076-.042-.107-.025zm-.374.213c-.031.017-.034.056-.007.087.028.032.076.043.108.025.031-.017.034-.056.007-.087-.028-.031-.076-.042-.108-.025zm-.635-.174c-.032.018-.035.057-.007.088.028.031.076.042.107.025.032-.017.035-.057.007-.088-.027-.03-.075-.042-.107-.025zm-.077-.336c-.032.017-.035.056-.007.087.028.03.076.042.107.025.032-.018.035-.057.007-.088-.028-.03-.076-.042-.107-.025z" fill="#fefefe"/><path fill-rule="evenodd" clip-rule="evenodd" d="M12.664 11.581c-.023-.087-.499-.323-.704-.26-.22.069-.429.35-.378.479.064.162.486.293.744.228.193-.049.361-.36.338-.447zm.099-.222c.112-.05.004-.333-.1-.484-.075-.109-.577-.473-.735-.307-.115.121.022.35.152.502.168.194.453.391.683.289zm.08.446c-.165-.024-.28.304-.29.493-.01.15.077.393.238.433.143.035.326-.137.348-.273.033-.212-.083-.622-.296-.653z" fill="#fefefe"/><path fill-rule="evenodd" clip-rule="evenodd" d="M13.095 12.147c.137.119.35.084.388-.014.07-.175-.047-.409-.237-.506-.13-.067-.28.086-.308.225a.625.625 0 01.157.295zm-.29-1.306c-.065.032-.05.1-.075.15a.804.804 0 01.076.219c.065.008.16.065.196.024.064-.071.07-.19.051-.278-.015-.074-.18-.148-.248-.115z" fill="#fefefe"/><path fill-rule="evenodd" clip-rule="evenodd" d="M14.142 10.794c-.03.19-.31.351-.528.467-.16.084-.494.213-.57.112-.04-.052.179-.141.109-.14-.17.004-.446.021-.467.157-.024.17.1.322.297.405.115.05.3-.056.352-.143.023-.039-.135.047-.165.006-.044-.059.3-.259.474-.367.227-.143.483-.255.724-.383l-.226-.114z" fill="#fefefe"/><path d="M11.935 11.13c.013-.022 0-.052-.03-.066-.03-.014-.065-.007-.079.017-.013.023 0 .053.03.067.03.014.065.006.079-.017zm.241.147c.011-.018 0-.043-.024-.054-.024-.011-.053-.005-.064.014-.011.018 0 .043.024.054.024.011.053.005.064-.014zm.114.929c.012-.022 0-.05-.028-.062-.027-.013-.06-.006-.072.015-.013.022 0 .05.027.062.027.013.06.006.073-.015zm.196-.088c.01-.016 0-.037-.02-.046-.021-.01-.046-.005-.055.011-.01.016 0 .037.02.047.021.01.046.004.055-.012z" fill="#fefefe"/></svg>