<svg width="26" height="26" fill="none" xmlns="http://www.w3.org/2000/svg"><circle cx="13.203" cy="13.386" r="12.5" fill="#BC002D"/><path d="M16.716 5.12H9.76c-.665 0-1.203.54-1.203 1.205v14.124c0 .663.538 1.203 1.203 1.203h6.956c.664 0 1.204-.54 1.204-1.203V6.325c0-.666-.54-1.205-1.204-1.205zm.302 13.395H9.459V7.152h7.559v11.363zM14.85 6.342h-3.225v-.351h3.225v.351zm1.38-.16a.309.309 0 11-.617-.002.309.309 0 01.617.002zm-1.525 14.187H11.77v-.904h2.937v.904z" fill="#FEFEFE"/><path d="M6.684 10.155c-1.863 1.606-1.9 4.537-.094 6.146m-.808-8.885c-3.58 3.084-3.649 8.716-.181 11.809m14.137-2.619c1.873-1.594 1.927-4.525.131-6.145m.754 8.889c3.6-3.062 3.701-8.694.252-11.807" stroke="#FEFEFE" stroke-linecap="round"/></svg>