<svg width="19" height="19" fill="none" xmlns="http://www.w3.org/2000/svg"><circle cx="9.024" cy="9.645" r="9" fill="#BC002D"/><path d="M11.31 12c1.457-2.447 1.274-2.142 1.316-2.206.53-.8.81-1.743.81-2.725 0-2.605-1.975-4.751-4.412-4.751-2.43 0-4.413 2.141-4.413 4.75 0 .982.286 1.95.834 2.761l1.293 2.17c-1.382.228-3.732.905-3.732 2.397 0 .543.332 1.318 1.912 1.922 1.103.421 2.561.653 4.106.653 2.89 0 6.018-.872 6.018-2.575 0-1.492-2.347-2.169-3.732-2.396zM6.115 9.357a4.038 4.038 0 01-.702-2.288c0-2.147 1.616-3.893 3.611-3.893 1.99 0 3.61 1.746 3.61 3.893 0 .8-.227 1.57-.659 2.223-.038.054.163-.281-2.951 4.949L6.115 9.357zm2.909 6.756c-3.156 0-5.215-.993-5.215-1.717 0-.487 1.058-1.288 3.403-1.6l1.474 2.474a.395.395 0 00.338.199.396.396 0 00.338-.199l1.474-2.474c2.345.312 3.403 1.113 3.403 1.6 0 .718-2.04 1.717-5.215 1.717z" fill="#FEFEFE"/><path d="M9.024 4.921c-1.106 0-2.006.963-2.006 2.147 0 1.184.9 2.147 2.006 2.147 1.106 0 2.006-.963 2.006-2.147 0-1.184-.9-2.147-2.006-2.147zm0 3.435c-.664 0-1.204-.578-1.204-1.288 0-.71.54-1.288 1.204-1.288.664 0 1.203.578 1.203 1.288 0 .71-.54 1.288-1.203 1.288z" fill="#FEFEFE"/></svg>